<?xml version="1.0"?><mxGraphModel><root><mxCell id="0" /><mxCell id="1" parent="0" /><mxCell id="edge1" style="rounded=1;html=1;exitX=0.5;exitY=0;entryX=0.5;entryY=1;jettySize=auto;curved=0;endArrow=block;dashed=0;endFill=1;" parent="1" edge="1" source="node8" target="node3"><mxGeometry as="geometry" relative="1" /></mxCell><mxCell id="edge2" style="rounded=1;html=1;exitX=0.5;exitY=0;entryX=0.5;entryY=1;jettySize=auto;curved=0;endArrow=block;dashed=0;endFill=1;" parent="1" edge="1" source="node9" target="node3"><mxGeometry as="geometry" relative="1" /></mxCell><mxCell id="edge3" style="rounded=1;html=1;exitX=0.5;exitY=0;entryX=0.5;entryY=1;jettySize=auto;curved=0;endArrow=block;dashed=0;endFill=1;" parent="1" edge="1" source="node15" target="node1"><mxGeometry as="geometry" relative="1" /></mxCell><mxCell id="edge4" style="rounded=1;html=1;exitX=0.364;exitY=0;entryX=0.354;entryY=1;jettySize=auto;curved=1;endArrow=block;dashed=0;endFill=1;" parent="1" edge="1" source="node17" target="node16"><mxGeometry as="geometry" relative="1"><Array as="points"><mxPoint x="3251.51" y="485.07000000000005" /><mxPoint x="3230.06" y="264.6" /><mxPoint x="3240.94" y="216.59000000000003" /></Array></mxGeometry></mxCell><mxCell id="edge5" style="rounded=1;html=1;exitX=0.5;exitY=0;entryX=0.5;entryY=1;jettySize=auto;curved=1;endArrow=block;dashed=0;endFill=1;" parent="1" edge="1" source="node17" target="node16"><mxGeometry as="geometry" relative="1"><Array as="points"><mxPoint x="3285.75" y="485.08000000000004" /><mxPoint x="3296.94" y="264.6" /><mxPoint x="3291.17" y="216.68000000000006" /></Array></mxGeometry></mxCell><mxCell id="node1" value="&lt;p style='margin:0px;text-align:center;margin-top:4px;;font-size:10.0px;font-family:Times New Roman,serif;color:#000000;'&gt;enum.Enum&lt;/p&gt;&lt;hr size='1'/&gt;&lt;p style='margin:0px;text-align:start;margin-left:4px;;font-size:10.0px;font-family:Times New Roman,serif;color:#000000;'&gt;__dir__()&lt;br/&gt;__format__(format_spec)&lt;br/&gt;__hash__()&lt;br/&gt;__new__(cls, value)&lt;br/&gt;__reduce_ex__(proto)&lt;br/&gt;__repr__()&lt;br/&gt;__str__()&lt;br/&gt;_generate_next_value_(name, start, count, last_values)&lt;br/&gt;_missing_(cls, value)&lt;br/&gt;name()&lt;br/&gt;value()&lt;/p&gt;" style="verticalAlign=top;align=left;overflow=fill;html=1;rounded=0;shadow=0;comic=0;labelBackgroundColor=none;strokeColor=black;strokeWidth=1;fillColor=#ffffff;" parent="1" vertex="1"><mxGeometry x="4.0" y="4.5" width="323.88" height="241.60000000000002" as="geometry" /></mxCell><mxCell id="node2" value="&lt;p style='margin:0px;text-align:center;margin-top:4px;;font-size:10.0px;font-family:Times New Roman,serif;color:#000000;'&gt;input_item.AbstractActionWidget&lt;/p&gt;&lt;hr size='1'/&gt;&lt;p style='margin:0px;text-align:start;margin-left:4px;;font-size:10.0px;font-family:Times New Roman,serif;color:#000000;'&gt;action_data&lt;br/&gt;action_modified&lt;br/&gt;main_layout&lt;/p&gt;&lt;hr size='1'/&gt;&lt;p style='margin:0px;text-align:start;margin-left:4px;;font-size:10.0px;font-family:Times New Roman,serif;color:#000000;'&gt;__init__(action_data, layout_type, parent)&lt;br/&gt;_create_ui()&lt;br/&gt;_get_input_type()&lt;br/&gt;_get_profile_root()&lt;br/&gt;_populate_ui()&lt;/p&gt;" style="verticalAlign=top;align=left;overflow=fill;html=1;rounded=0;shadow=0;comic=0;labelBackgroundColor=none;strokeColor=black;strokeWidth=1;fillColor=#ffffff;" parent="1" vertex="1"><mxGeometry x="257.15" y="467.90000000000003" width="251.59000000000003" height="175.2" as="geometry" /></mxCell><mxCell id="node3" value="&lt;p style='margin:0px;text-align:center;margin-top:4px;;font-size:10.0px;font-family:Times New Roman,serif;color:#000000;'&gt;input_item.AbstractActionWrapper&lt;/p&gt;&lt;hr size='1'/&gt;&lt;p style='margin:0px;text-align:start;margin-left:4px;;font-size:10.0px;font-family:Times New Roman,serif;color:#000000;'&gt;action_widget&lt;br/&gt;dock_widget&lt;br/&gt;main_layout&lt;/p&gt;&lt;hr size='1'/&gt;&lt;p style='margin:0px;text-align:start;margin-left:4px;;font-size:10.0px;font-family:Times New Roman,serif;color:#000000;'&gt;__init__(action_widget, parent)&lt;/p&gt;" style="verticalAlign=top;align=left;overflow=fill;html=1;rounded=0;shadow=0;comic=0;labelBackgroundColor=none;strokeColor=black;strokeWidth=1;fillColor=#ffffff;" parent="1" vertex="1"><mxGeometry x="632.61" y="71.30000000000007" width="214.65999999999997" height="108.0" as="geometry" /></mxCell><mxCell id="node4" value="&lt;p style='margin:0px;text-align:center;margin-top:4px;;font-size:10.0px;font-family:Times New Roman,serif;color:#000000;'&gt;input_item.AbstractContainerWidget&lt;/p&gt;&lt;hr size='1'/&gt;&lt;p style='margin:0px;text-align:start;margin-left:4px;;font-size:10.0px;font-family:Times New Roman,serif;color:#000000;'&gt;action_layout&lt;br/&gt;action_tab_widget&lt;br/&gt;action_widgets : list&lt;br/&gt;activation_condition_layout&lt;br/&gt;activation_condition_tab_widget&lt;br/&gt;activation_condition_widget&lt;br/&gt;closed&lt;br/&gt;container_modified&lt;br/&gt;dock_tabs&lt;br/&gt;palette&lt;br/&gt;profile_data&lt;br/&gt;virtual_axis_to_widget : dict&lt;br/&gt;virtual_button_layout&lt;br/&gt;virtual_button_tab_widget&lt;br/&gt;virtual_button_widget&lt;/p&gt;&lt;hr size='1'/&gt;&lt;p style='margin:0px;text-align:start;margin-left:4px;;font-size:10.0px;font-family:Times New Roman,serif;color:#000000;'&gt;__init__(profile_data, parent)&lt;br/&gt;_create_action_set_widget(action_set_data, label, view_type)&lt;br/&gt;_create_action_tab()&lt;br/&gt;_create_action_ui()&lt;br/&gt;_create_activation_condition_tab()&lt;br/&gt;_create_condition_ui()&lt;br/&gt;_create_virtual_button_tab()&lt;br/&gt;_get_widget_index(widget)&lt;br/&gt;_get_window_title()&lt;br/&gt;_handle_interaction(widget, action)&lt;br/&gt;_select_tab(view_type)&lt;br/&gt;_tab_changed(index)&lt;br/&gt;remove(_)&lt;/p&gt;" style="verticalAlign=top;align=left;overflow=fill;html=1;rounded=0;shadow=0;comic=0;labelBackgroundColor=none;strokeColor=black;strokeWidth=1;fillColor=#ffffff;" parent="1" vertex="1"><mxGeometry x="984.34" y="299.90000000000003" width="361.19999999999993" height="511.2" as="geometry" /></mxCell><mxCell id="node5" value="&lt;p style='margin:0px;text-align:center;margin-top:4px;;font-size:10.0px;font-family:Times New Roman,serif;color:#000000;'&gt;input_item.ActionLabel&lt;/p&gt;&lt;hr size='1'/&gt;&lt;p style='margin:0px;text-align:start;margin-left:4px;;font-size:10.0px;font-family:Times New Roman,serif;color:#000000;'&gt;__init__(action_entry, parent)&lt;/p&gt;" style="verticalAlign=top;align=left;overflow=fill;html=1;rounded=0;shadow=0;comic=0;labelBackgroundColor=none;strokeColor=black;strokeWidth=1;fillColor=#ffffff;" parent="1" vertex="1"><mxGeometry x="1363.97" y="518.7" width="183.94000000000005" height="73.59999999999991" as="geometry" /></mxCell><mxCell id="node6" value="&lt;p style='margin:0px;text-align:center;margin-top:4px;;font-size:10.0px;font-family:Times New Roman,serif;color:#000000;'&gt;input_item.ActionSetModel&lt;/p&gt;&lt;hr size='1'/&gt;&lt;p style='margin:0px;text-align:start;margin-left:4px;;font-size:10.0px;font-family:Times New Roman,serif;color:#000000;'&gt;_action_set : list&lt;/p&gt;&lt;hr size='1'/&gt;&lt;p style='margin:0px;text-align:start;margin-left:4px;;font-size:10.0px;font-family:Times New Roman,serif;color:#000000;'&gt;__init__(action_set)&lt;br/&gt;add_action(action)&lt;br/&gt;data(index)&lt;br/&gt;remove_action(action)&lt;br/&gt;rows()&lt;/p&gt;" style="verticalAlign=top;align=left;overflow=fill;html=1;rounded=0;shadow=0;comic=0;labelBackgroundColor=none;strokeColor=black;strokeWidth=1;fillColor=#ffffff;" parent="1" vertex="1"><mxGeometry x="1565.59" y="484.70000000000005" width="172.71000000000004" height="141.5999999999999" as="geometry" /></mxCell><mxCell id="node7" value="&lt;p style='margin:0px;text-align:center;margin-top:4px;;font-size:10.0px;font-family:Times New Roman,serif;color:#000000;'&gt;input_item.ActionSetView&lt;/p&gt;&lt;hr size='1'/&gt;&lt;p style='margin:0px;text-align:start;margin-left:4px;;font-size:10.0px;font-family:Times New Roman,serif;color:#000000;'&gt;action_layout&lt;br/&gt;action_selector&lt;br/&gt;allowed_interactions&lt;br/&gt;control_delete&lt;br/&gt;control_edit&lt;br/&gt;control_move_down&lt;br/&gt;control_move_up&lt;br/&gt;controls_layout&lt;br/&gt;group_layout&lt;br/&gt;group_widget&lt;br/&gt;interacted&lt;br/&gt;label&lt;br/&gt;main_layout&lt;br/&gt;profile_data&lt;br/&gt;view_type&lt;/p&gt;&lt;hr size='1'/&gt;&lt;p style='margin:0px;text-align:start;margin-left:4px;;font-size:10.0px;font-family:Times New Roman,serif;color:#000000;'&gt;__init__(profile_data, label, view_type, parent)&lt;br/&gt;_add_action(action_name)&lt;br/&gt;_create_closed_cb(widget)&lt;br/&gt;_create_edit_controls()&lt;br/&gt;redraw()&lt;/p&gt;" style="verticalAlign=top;align=left;overflow=fill;html=1;rounded=0;shadow=0;comic=0;labelBackgroundColor=none;strokeColor=black;strokeWidth=1;fillColor=#ffffff;" parent="1" vertex="1"><mxGeometry x="1756.38" y="367.1" width="281.1299999999999" height="376.79999999999995" as="geometry" /></mxCell><mxCell id="node8" value="&lt;p style='margin:0px;text-align:center;margin-top:4px;;font-size:10.0px;font-family:Times New Roman,serif;color:#000000;'&gt;input_item.BasicActionWrapper&lt;/p&gt;&lt;hr size='1'/&gt;&lt;p style='margin:0px;text-align:start;margin-left:4px;;font-size:10.0px;font-family:Times New Roman,serif;color:#000000;'&gt;closed&lt;/p&gt;&lt;hr size='1'/&gt;&lt;p style='margin:0px;text-align:start;margin-left:4px;;font-size:10.0px;font-family:Times New Roman,serif;color:#000000;'&gt;__init__(action_widget, parent)&lt;br/&gt;remove(_)&lt;/p&gt;" style="verticalAlign=top;align=left;overflow=fill;html=1;rounded=0;shadow=0;comic=0;labelBackgroundColor=none;strokeColor=black;strokeWidth=1;fillColor=#ffffff;" parent="1" vertex="1"><mxGeometry x="526.77" y="509.90000000000003" width="198.34000000000003" height="91.19999999999999" as="geometry" /></mxCell><mxCell id="node9" value="&lt;p style='margin:0px;text-align:center;margin-top:4px;;font-size:10.0px;font-family:Times New Roman,serif;color:#000000;'&gt;input_item.ConditionActionWrapper&lt;/p&gt;&lt;hr size='1'/&gt;&lt;p style='margin:0px;text-align:start;margin-left:4px;;font-size:10.0px;font-family:Times New Roman,serif;color:#000000;'&gt;condition_model&lt;br/&gt;condition_view&lt;/p&gt;&lt;hr size='1'/&gt;&lt;p style='margin:0px;text-align:start;margin-left:4px;;font-size:10.0px;font-family:Times New Roman,serif;color:#000000;'&gt;__init__(action_widget, parent)&lt;/p&gt;" style="verticalAlign=top;align=left;overflow=fill;html=1;rounded=0;shadow=0;comic=0;labelBackgroundColor=none;strokeColor=black;strokeWidth=1;fillColor=#ffffff;" parent="1" vertex="1"><mxGeometry x="743.32" y="509.90000000000003" width="223.2399999999999" height="91.19999999999999" as="geometry" /></mxCell><mxCell id="node10" value="&lt;p style='margin:0px;text-align:center;margin-top:4px;;font-size:10.0px;font-family:Times New Roman,serif;color:#000000;'&gt;input_item.ContainerSelector&lt;/p&gt;&lt;hr size='1'/&gt;&lt;p style='margin:0px;text-align:start;margin-left:4px;;font-size:10.0px;font-family:Times New Roman,serif;color:#000000;'&gt;add_button&lt;br/&gt;container_added&lt;br/&gt;container_dropdown&lt;br/&gt;input_type&lt;br/&gt;main_layout&lt;/p&gt;&lt;hr size='1'/&gt;&lt;p style='margin:0px;text-align:start;margin-left:4px;;font-size:10.0px;font-family:Times New Roman,serif;color:#000000;'&gt;__init__(input_type, parent)&lt;br/&gt;_add_container(clicked)&lt;br/&gt;_valid_container_list()&lt;/p&gt;" style="verticalAlign=top;align=left;overflow=fill;html=1;rounded=0;shadow=0;comic=0;labelBackgroundColor=none;strokeColor=black;strokeWidth=1;fillColor=#ffffff;" parent="1" vertex="1"><mxGeometry x="2055.32" y="467.90000000000003" width="181.23999999999978" height="175.2" as="geometry" /></mxCell><mxCell id="node11" value="&lt;p style='margin:0px;text-align:center;margin-top:4px;;font-size:10.0px;font-family:Times New Roman,serif;color:#000000;'&gt;input_item.InputIdentifier&lt;/p&gt;&lt;hr size='1'/&gt;&lt;p style='margin:0px;text-align:start;margin-left:4px;;font-size:10.0px;font-family:Times New Roman,serif;color:#000000;'&gt;_device_type&lt;br/&gt;_input_id&lt;br/&gt;_input_type&lt;br/&gt;device_type&lt;br/&gt;input_id&lt;br/&gt;input_type&lt;/p&gt;&lt;hr size='1'/&gt;&lt;p style='margin:0px;text-align:start;margin-left:4px;;font-size:10.0px;font-family:Times New Roman,serif;color:#000000;'&gt;__init__(input_type, input_id, device_type)&lt;/p&gt;" style="verticalAlign=top;align=left;overflow=fill;html=1;rounded=0;shadow=0;comic=0;labelBackgroundColor=none;strokeColor=black;strokeWidth=1;fillColor=#ffffff;" parent="1" vertex="1"><mxGeometry x="2254.85" y="476.3" width="260.1800000000003" height="158.40000000000003" as="geometry" /></mxCell><mxCell id="node12" value="&lt;p style='margin:0px;text-align:center;margin-top:4px;;font-size:10.0px;font-family:Times New Roman,serif;color:#000000;'&gt;input_item.InputItemButton&lt;/p&gt;&lt;hr size='1'/&gt;&lt;p style='margin:0px;text-align:start;margin-left:4px;;font-size:10.0px;font-family:Times New Roman,serif;color:#000000;'&gt;_description_widget&lt;br/&gt;_icon_layout&lt;br/&gt;_icons : list&lt;br/&gt;_label_widget&lt;br/&gt;identifier&lt;br/&gt;main_layout&lt;br/&gt;selected&lt;/p&gt;&lt;hr size='1'/&gt;&lt;p style='margin:0px;text-align:start;margin-left:4px;;font-size:10.0px;font-family:Times New Roman,serif;color:#000000;'&gt;__init__(identifier, parent)&lt;br/&gt;create_action_icons(profile_data)&lt;br/&gt;mousePressEvent(event)&lt;br/&gt;update_description(description)&lt;/p&gt;" style="verticalAlign=top;align=left;overflow=fill;html=1;rounded=0;shadow=0;comic=0;labelBackgroundColor=none;strokeColor=black;strokeWidth=1;fillColor=#ffffff;" parent="1" vertex="1"><mxGeometry x="2532.88" y="442.70000000000005" width="204.1199999999999" height="225.5999999999999" as="geometry" /></mxCell><mxCell id="node13" value="&lt;p style='margin:0px;text-align:center;margin-top:4px;;font-size:10.0px;font-family:Times New Roman,serif;color:#000000;'&gt;input_item.InputItemListModel&lt;/p&gt;&lt;hr size='1'/&gt;&lt;p style='margin:0px;text-align:start;margin-left:4px;;font-size:10.0px;font-family:Times New Roman,serif;color:#000000;'&gt;_device_data&lt;br/&gt;_mode&lt;br/&gt;mode&lt;/p&gt;&lt;hr size='1'/&gt;&lt;p style='margin:0px;text-align:start;margin-left:4px;;font-size:10.0px;font-family:Times New Roman,serif;color:#000000;'&gt;__init__(device_data, mode)&lt;br/&gt;data(index)&lt;br/&gt;event_to_index(event)&lt;br/&gt;rows()&lt;/p&gt;" style="verticalAlign=top;align=left;overflow=fill;html=1;rounded=0;shadow=0;comic=0;labelBackgroundColor=none;strokeColor=black;strokeWidth=1;fillColor=#ffffff;" parent="1" vertex="1"><mxGeometry x="2755.09" y="476.3" width="193.69999999999982" height="158.40000000000003" as="geometry" /></mxCell><mxCell id="node14" value="&lt;p style='margin:0px;text-align:center;margin-top:4px;;font-size:10.0px;font-family:Times New Roman,serif;color:#000000;'&gt;input_item.InputItemListView&lt;/p&gt;&lt;hr size='1'/&gt;&lt;p style='margin:0px;text-align:start;margin-left:4px;;font-size:10.0px;font-family:Times New Roman,serif;color:#000000;'&gt;current_index : NoneType&lt;br/&gt;main_layout&lt;br/&gt;scroll_area&lt;br/&gt;scroll_layout&lt;br/&gt;scroll_widget&lt;br/&gt;shown_input_types : list&lt;br/&gt;type_to_string : dict&lt;/p&gt;&lt;hr size='1'/&gt;&lt;p style='margin:0px;text-align:start;margin-left:4px;;font-size:10.0px;font-family:Times New Roman,serif;color:#000000;'&gt;__init__(parent)&lt;br/&gt;_create_selection_callback(index)&lt;br/&gt;limit_input_types(types)&lt;br/&gt;redraw()&lt;br/&gt;redraw_index(index)&lt;br/&gt;select_item(index, emit_signal)&lt;/p&gt;" style="verticalAlign=top;align=left;overflow=fill;html=1;rounded=0;shadow=0;comic=0;labelBackgroundColor=none;strokeColor=black;strokeWidth=1;fillColor=#ffffff;" parent="1" vertex="1"><mxGeometry x="2966.33" y="425.90000000000003" width="207.23000000000002" height="259.2" as="geometry" /></mxCell><mxCell id="node15" value="&lt;p style='margin:0px;text-align:center;margin-top:4px;;font-size:10.0px;font-family:Times New Roman,serif;color:#000000;'&gt;input_item.Interactions&lt;/p&gt;&lt;hr size='1'/&gt;&lt;p style='margin:0px;text-align:center;margin-top:4px;;font-size:10.0px;font-family:Times New Roman,serif;color:#000000;'&gt; &lt;/p&gt;" style="verticalAlign=top;align=left;overflow=fill;html=1;rounded=0;shadow=0;comic=0;labelBackgroundColor=none;strokeColor=black;strokeWidth=1;fillColor=#ffffff;" parent="1" vertex="1"><mxGeometry x="92.82" y="518.7" width="146.24" height="73.59999999999991" as="geometry" /></mxCell><mxCell id="node16" value="&lt;p style='margin:0px;text-align:center;margin-top:4px;;font-size:10.0px;font-family:Times New Roman,serif;color:#000000;'&gt;input_item.TitleBar&lt;/p&gt;&lt;hr size='1'/&gt;&lt;p style='margin:0px;text-align:start;margin-left:4px;;font-size:10.0px;font-family:Times New Roman,serif;color:#000000;'&gt;close_button&lt;br/&gt;help_button&lt;br/&gt;hint&lt;br/&gt;label&lt;br/&gt;layout&lt;/p&gt;&lt;hr size='1'/&gt;&lt;p style='margin:0px;text-align:start;margin-left:4px;;font-size:10.0px;font-family:Times New Roman,serif;color:#000000;'&gt;__init__(label, hint, close_cb, parent)&lt;br/&gt;_show_hint()&lt;/p&gt;" style="verticalAlign=top;align=left;overflow=fill;html=1;rounded=0;shadow=0;comic=0;labelBackgroundColor=none;strokeColor=black;strokeWidth=1;fillColor=#ffffff;" parent="1" vertex="1"><mxGeometry x="3160.97" y="46.10000000000002" width="225.94000000000005" height="158.39999999999998" as="geometry" /></mxCell><mxCell id="node17" value="&lt;p style='margin:0px;text-align:center;margin-top:4px;;font-size:10.0px;font-family:Times New Roman,serif;color:#000000;'&gt;input_item.TitleBarButton&lt;/p&gt;&lt;hr size='1'/&gt;&lt;p style='margin:0px;text-align:start;margin-left:4px;;font-size:10.0px;font-family:Times New Roman,serif;color:#000000;'&gt;__init__(parent)&lt;br/&gt;enterEvent(event)&lt;br/&gt;leaveEvent(event)&lt;br/&gt;paintEvent(event)&lt;br/&gt;sizeHint()&lt;/p&gt;" style="verticalAlign=top;align=left;overflow=fill;html=1;rounded=0;shadow=0;comic=0;labelBackgroundColor=none;strokeColor=black;strokeWidth=1;fillColor=#ffffff;" parent="1" vertex="1"><mxGeometry x="3191.48" y="485.1" width="164.92999999999984" height="140.80000000000007" as="geometry" /></mxCell></root></mxGraphModel>